<svg width="70" height="79" viewBox="0 0 70 79" fill="none" xmlns="http://www.w3.org/2000/svg">
<path d="M12.6 41.6C12.4933 41.6 12.3733 41.56 12.24 41.48C12.1067 41.4 12.0133 41.2267 11.96 40.96L5.92 16.44C5.89333 16.2533 5.81333 16.1733 5.68 16.2C5.54667 16.2 5.48 16.2933 5.48 16.48L4.68 38.56C4.65333 39.3067 4.77333 39.88 5.04 40.28C5.30667 40.6533 5.77333 40.8933 6.44 41L6.96 41.08C7.30667 41.1067 7.48 41.2667 7.48 41.56C7.48 41.8533 7.28 42 6.88 42H1.16C0.76 42 0.56 41.8533 0.56 41.56C0.56 41.2667 0.733333 41.1067 1.08 41.08L1.6 41C2.29333 40.8933 2.76 40.6533 3 40.28C3.26667 39.88 3.41333 39.3067 3.44 38.56L4.24 15.84C4.26667 15.28 4.18667 14.9067 4 14.72C3.81333 14.5333 3.41333 14.3867 2.8 14.28L1.88 14.12C1.53333 14.04 1.36 13.88 1.36 13.64C1.36 13.3467 1.56 13.2 1.96 13.2H6.76C7.58667 13.2 8.09333 13.6 8.28 14.4L13.12 34.36C13.1733 34.5467 13.2533 34.64 13.36 34.64C13.4933 34.64 13.5733 34.5467 13.6 34.36L18.64 14.2C18.8 13.5333 19.2267 13.2 19.92 13.2H24.64C25.04 13.2 25.24 13.3467 25.24 13.64C25.24 13.88 25.0667 14.04 24.72 14.12L23.8 14.28C23.24 14.3867 22.8667 14.5333 22.68 14.72C22.4933 14.9067 22.4133 15.28 22.44 15.84L23.24 39.36C23.2667 39.92 23.36 40.2933 23.52 40.48C23.68 40.6667 24.04 40.8133 24.6 40.92L25.52 41.08C25.8667 41.16 26.04 41.32 26.04 41.56C26.04 41.8533 25.84 42 25.44 42H18.2C17.8 42 17.6 41.8533 17.6 41.56C17.6 41.32 17.7733 41.16 18.12 41.08L19.04 40.92C19.6 40.8133 19.9733 40.6667 20.16 40.48C20.3467 40.2933 20.4267 39.92 20.4 39.36L19.72 16.48C19.72 16.2933 19.6533 16.2 19.52 16.2C19.4133 16.1733 19.3333 16.24 19.28 16.4L13.2 40.96C13.1467 41.2267 13.0533 41.4 12.92 41.48C12.8133 41.56 12.7067 41.6 12.6 41.6Z" fill="#FAFBD9"/>
<path d="M31.184 63.576C28.8373 63.576 26.832 63.064 25.168 62.04C23.504 60.9733 22.224 59.5867 21.328 57.88C20.4747 56.1307 20.048 54.2533 20.048 52.248C20.048 49.048 20.9013 46.1467 22.608 43.544C24.3573 40.8987 26.64 38.7013 29.456 36.952C29.9253 36.6533 30.0107 36.248 29.712 35.736C28.4747 33.688 27.536 31.896 26.896 30.36C26.256 28.7813 25.936 27.16 25.936 25.496C25.936 23.7467 26.3413 22.168 27.152 20.76C28.0053 19.352 29.2 18.2213 30.736 17.368C32.272 16.5147 34.0427 16.088 36.048 16.088C37.84 16.088 39.3547 16.4933 40.592 17.304C41.8293 18.1147 42.768 19.1387 43.408 20.376C44.048 21.5707 44.368 22.7867 44.368 24.024C44.368 26.2 43.6853 28.184 42.32 29.976C40.9547 31.768 38.7573 33.4533 35.728 35.032C35.216 35.3733 35.1093 35.7787 35.408 36.248L43.536 49.304C43.7493 49.6027 43.9627 49.752 44.176 49.752C44.3893 49.7093 44.5813 49.5387 44.752 49.24C45.2213 48.2587 45.6693 47.256 46.096 46.232C46.5653 45.1653 46.928 44.312 47.184 43.672C47.6533 42.4347 47.8027 41.5387 47.632 40.984C47.4613 40.3867 46.9493 40.024 46.096 39.896L43.856 39.576C43.3013 39.5333 43.024 39.2773 43.024 38.808C43.024 38.3813 43.3227 38.168 43.92 38.168H55.12C55.7173 38.168 56.016 38.4027 56.016 38.872C56.016 39.3413 55.7387 39.5973 55.184 39.64L53.968 39.768C53.0293 39.8533 52.1333 40.1947 51.28 40.792C50.4693 41.3893 49.7227 42.4987 49.04 44.12C48.656 45.0587 48.1867 46.168 47.632 47.448C47.0773 48.728 46.5013 49.9653 45.904 51.16C45.5627 51.8853 45.584 52.5893 45.968 53.272L49.68 59.224C50.1067 59.864 50.4693 60.3547 50.768 60.696C51.1093 61.0373 51.536 61.2293 52.048 61.272L54.864 61.528C55.376 61.5707 55.632 61.8267 55.632 62.296C55.632 62.7653 55.3333 63 54.736 63H48.208C47.3973 63 46.7787 62.6587 46.352 61.976L43.408 57.368C43.024 56.7707 42.6187 56.7493 42.192 57.304C40.4427 59.5653 38.6293 61.1867 36.752 62.168C34.9173 63.1067 33.0613 63.576 31.184 63.576ZM34.768 33.688C36.7307 32.4933 38.1813 31.0427 39.12 29.336C40.1013 27.6293 40.592 25.944 40.592 24.28C40.592 23.256 40.4427 22.2533 40.144 21.272C39.888 20.2907 39.4187 19.48 38.736 18.84C38.0533 18.1573 37.0507 17.816 35.728 17.816C33.9787 17.816 32.5707 18.4773 31.504 19.8C30.48 21.1227 29.968 22.5733 29.968 24.152C29.968 25.56 30.224 26.904 30.736 28.184C31.248 29.464 32.1867 31.192 33.552 33.368C33.808 33.9227 34.2133 34.0293 34.768 33.688ZM32.016 60.568C33.5093 60.568 35.0027 60.2053 36.496 59.48C37.9893 58.7547 39.4613 57.496 40.912 55.704C41.3813 54.9787 41.4027 54.2533 40.976 53.528L31.568 38.68C31.184 38.168 30.7573 38.0827 30.288 38.424C28.24 39.8747 26.7253 41.6667 25.744 43.8C24.7627 45.9333 24.272 48.3227 24.272 50.968C24.272 53.6133 24.8907 55.8747 26.128 57.752C27.408 59.6293 29.3707 60.568 32.016 60.568Z" fill="#FAFBD9"/>
<path d="M51.36 67C50.96 67 50.76 66.8533 50.76 66.56C50.76 66.32 50.9333 66.16 51.28 66.08L52.2 65.92C52.76 65.8133 53.12 65.6667 53.28 65.48C53.4667 65.2933 53.56 64.92 53.56 64.36V40.84C53.56 40.28 53.4667 39.9067 53.28 39.72C53.12 39.5333 52.76 39.3867 52.2 39.28L51.28 39.12C50.9333 39.04 50.76 38.88 50.76 38.64C50.76 38.3467 50.96 38.2 51.36 38.2H59.48C60.8133 38.2 62 38.48 63.04 39.04C64.08 39.6 64.8933 40.36 65.48 41.32C66.0933 42.28 66.4 43.3733 66.4 44.6C66.4 45.8 66.04 46.92 65.32 47.96C64.6267 48.9733 63.6133 49.8267 62.28 50.52C62.12 50.6 62.04 50.7067 62.04 50.84C62.04 50.9733 62.1333 51.0667 62.32 51.12C64.1333 51.7333 65.5333 52.72 66.52 54.08C67.5067 55.4133 68 57 68 58.84C68 60.4133 67.64 61.8267 66.92 63.08C66.2 64.3067 65.2 65.2667 63.92 65.96C62.6667 66.6533 61.24 67 59.64 67H51.36ZM58.52 50.56C59.9333 50.56 61.1067 50.0133 62.04 48.92C63 47.8 63.48 46.4133 63.48 44.76C63.48 43.1067 63.0267 41.7733 62.12 40.76C61.2133 39.72 60.0133 39.2 58.52 39.2C57.1067 39.2 56.4 39.7333 56.4 40.8V48.36C56.4 49.1333 56.56 49.6933 56.88 50.04C57.2267 50.3867 57.7733 50.56 58.52 50.56ZM59.12 66C60.8533 66 62.2667 65.3467 63.36 64.04C64.4533 62.7067 65 60.9333 65 58.72C65 56.5067 64.44 54.76 63.32 53.48C62.2267 52.2 60.7467 51.56 58.88 51.56C57.2267 51.56 56.4 52.2133 56.4 53.52V63.24C56.4 65.08 57.3067 66 59.12 66Z" fill="#FAFBD9"/>
</svg>
